<svg viewBox="0 0 100 100" fill="none" xmlns="http://www.w3.org/2000/svg">
  <circle cx="50" cy="50" r="48" fill="#2E5C40" />
  <circle cx="50" cy="50" r="44" stroke="#D4AF37" stroke-width="2" fill="none" />
  <path d="M50 25C54.4183 25 58 28.5817 58 33C58 37.4183 54.4183 41 50 41C45.5817 41 42 37.4183 42 33C42 28.5817 45.5817 25 50 25Z" fill="#D4AF37" />
  <path d="M35 55C35 48 42 45 50 45C58 45 65 48 65 55V75C65 77.7614 62.7614 80 60 80H40C37.2386 80 35 77.7614 35 75V55Z" fill="#D4AF37" />
  <path d="M50 65C50 65 43 59 43 54.5C43 51.4624 45.4624 49 48.5 49C49.8255 49 50 50 50 50C50 50 50.1745 49 51.5 49C54.5376 49 57 51.4624 57 54.5C57 59 50 65 50 65Z" fill="#2E5C40" />
</svg>
